<svg width="177" height="128" viewBox="0 0 177 128" fill="none" xmlns="http://www.w3.org/2000/svg">
<rect x="35.9492" y="29.3306" width="70" height="62" rx="10" transform="rotate(-21.9508 35.9492 29.3306)" stroke="#FFF215" stroke-width="2"/>
<rect x="33.5328" y="39.8246" width="70" height="62" rx="10" transform="rotate(-35.1768 33.5328 39.8246)" stroke="#FFF215" stroke-width="2"/>
<rect x="33.3032" y="47.3206" width="70" height="62" rx="10" transform="rotate(-44.3766 33.3032 47.3206)" stroke="#FFF215" stroke-width="2"/>
<path d="M81.0341 26.0904C78.8628 26.1065 77.4602 26.5443 76.4931 27.2183C75.3879 27.9886 74.7675 29.1175 74.2717 30.5794C74.4819 32.2965 76.2356 34.5325 75.8842 36.3528C74.5324 34.0385 73.139 30.7757 70.6908 30.1089C69.2901 29.7299 67.6934 29.633 67.1192 29.9911C66.4405 30.4144 65.9863 31.2019 65.7293 32.194C65.4724 33.1861 65.4291 34.3462 65.5087 35.3345C65.7082 37.8065 67.5417 41.4866 69.3576 44.4476C70.7177 46.6654 72.0466 48.5013 72.6282 49.2836C73.2458 49.1021 73.8712 48.9483 74.5026 48.8226C74.3764 47.3444 74.6161 45.9783 74.5705 44.3973C74.9155 45.8894 75.2136 47.2336 75.7415 48.6104C76.7573 48.465 77.8267 48.3807 78.9284 48.3791C79.7026 48.3773 80.4764 48.4174 81.2463 48.4991L82.4128 45.0897L82.2181 48.6255C83.6223 48.8424 85.041 49.2127 86.4329 49.7721C87.4345 48.7256 87.8173 47.5243 88.4828 46.3936C88.5155 47.7063 88.1131 49.0101 87.2481 50.1231C87.9783 50.4594 88.6987 50.8507 89.4029 51.3027C92.8083 45.7943 94.8736 40.3523 94.4794 35.0031C94.3566 33.3354 93.98 31.8705 93.4384 30.8108C92.897 29.751 92.2221 29.1338 91.5113 28.9484C90.9383 28.7989 89.4748 29.1804 88.2759 29.7274C86.0655 30.6141 84.2974 33.4776 83.6909 35.431C83.6701 34.4762 83.9372 31.7896 84.999 30.4519C84.6726 29.4207 84.4319 28.2867 84.0077 27.4691C83.1511 26.1471 82.3477 26.0819 81.0343 26.0904L81.0341 26.0904ZM78.8328 49.8671C76.7012 49.8772 74.6992 50.211 73.0274 50.705L72.0737 58.8228C72.9071 58.3593 73.9046 58.0727 74.9709 57.9065C75.7878 57.7791 76.655 57.7233 77.5436 57.7285C77.6705 57.7293 77.7979 57.7313 77.9257 57.7345C78.9475 57.7602 79.992 57.8633 81.0161 58.0283C83.064 58.3583 85.0237 58.9343 86.5502 59.6833C87.1526 59.9789 87.7063 60.2985 88.1676 60.6595L88.8509 52.707C85.6957 50.6012 82.1118 49.8514 78.8328 49.867L78.8328 49.8671ZM77.5334 59.2072C76.7117 59.2023 75.9213 59.2526 75.1984 59.3654C73.8764 59.5715 72.8159 59.9904 72.1495 60.5718C76.2853 64.3932 82.2705 64.8399 87.766 62.3949C87.4555 61.9856 86.832 61.4663 85.8997 61.0088C84.5571 60.35 82.7062 59.7964 80.7811 59.4862C79.6983 59.3117 78.59 59.2138 77.5335 59.2073L77.5334 59.2072Z" fill="#FFF215"/>
<path d="M12.204 107.598V119.727L7.329 120.468L6.627 94.143H4.95L4.17 90.672L26.4 89.19V94.143H12.204V103.659L24.684 102.411V107.598H12.204ZM110.859 120.533L96.0581 98.147L96.5501 120L91.9171 120.533L90.7281 91.423L89.2931 89.332L95.8941 87.2L110.162 111.39L109.916 87.2L115.615 88.02L114.508 120L110.859 120.533Z" fill="#FFF215"/>
<path d="M29.2764 111.476V111.105C29.2764 109.849 29.459 108.683 29.8242 107.609C30.1895 106.524 30.7158 105.584 31.4033 104.789C32.0908 103.983 32.9233 103.36 33.9009 102.92C34.8784 102.469 35.9741 102.243 37.188 102.243C38.4126 102.243 39.5137 102.469 40.4912 102.92C41.4795 103.36 42.3174 103.983 43.0049 104.789C43.7031 105.584 44.2349 106.524 44.6001 107.609C44.9653 108.683 45.1479 109.849 45.1479 111.105V111.476C45.1479 112.733 44.9653 113.898 44.6001 114.973C44.2349 116.047 43.7031 116.987 43.0049 117.792C42.3174 118.587 41.4849 119.21 40.5073 119.662C39.5405 120.102 38.4448 120.322 37.2202 120.322C35.9956 120.322 34.8945 120.102 33.917 119.662C32.9395 119.21 32.1016 118.587 31.4033 117.792C30.7158 116.987 30.1895 116.047 29.8242 114.973C29.459 113.898 29.2764 112.733 29.2764 111.476ZM32.2573 111.105V111.476C32.2573 112.346 32.3594 113.168 32.5635 113.941C32.7676 114.704 33.0737 115.381 33.4819 115.972C33.9009 116.562 34.4219 117.03 35.0449 117.374C35.668 117.707 36.3931 117.873 37.2202 117.873C38.0366 117.873 38.751 117.707 39.3633 117.374C39.9863 117.03 40.502 116.562 40.9102 115.972C41.3184 115.381 41.6245 114.704 41.8286 113.941C42.0435 113.168 42.1509 112.346 42.1509 111.476V111.105C42.1509 110.246 42.0435 109.435 41.8286 108.672C41.6245 107.899 41.313 107.217 40.894 106.626C40.4858 106.024 39.9702 105.552 39.3472 105.208C38.7349 104.864 38.0151 104.692 37.188 104.692C36.3716 104.692 35.6519 104.864 35.0288 105.208C34.4165 105.552 33.9009 106.024 33.4819 106.626C33.0737 107.217 32.7676 107.899 32.5635 108.672C32.3594 109.435 32.2573 110.246 32.2573 111.105ZM48.0967 111.476V111.105C48.0967 109.849 48.2793 108.683 48.6445 107.609C49.0098 106.524 49.5361 105.584 50.2236 104.789C50.9111 103.983 51.7437 103.36 52.7212 102.92C53.6987 102.469 54.7944 102.243 56.0083 102.243C57.2329 102.243 58.334 102.469 59.3115 102.92C60.2998 103.36 61.1377 103.983 61.8252 104.789C62.5234 105.584 63.0552 106.524 63.4204 107.609C63.7856 108.683 63.9683 109.849 63.9683 111.105V111.476C63.9683 112.733 63.7856 113.898 63.4204 114.973C63.0552 116.047 62.5234 116.987 61.8252 117.792C61.1377 118.587 60.3052 119.21 59.3276 119.662C58.3608 120.102 57.2651 120.322 56.0405 120.322C54.8159 120.322 53.7148 120.102 52.7373 119.662C51.7598 119.21 50.9219 118.587 50.2236 117.792C49.5361 116.987 49.0098 116.047 48.6445 114.973C48.2793 113.898 48.0967 112.733 48.0967 111.476ZM51.0776 111.105V111.476C51.0776 112.346 51.1797 113.168 51.3838 113.941C51.5879 114.704 51.894 115.381 52.3022 115.972C52.7212 116.562 53.2422 117.03 53.8652 117.374C54.4883 117.707 55.2134 117.873 56.0405 117.873C56.8569 117.873 57.5713 117.707 58.1836 117.374C58.8066 117.03 59.3223 116.562 59.7305 115.972C60.1387 115.381 60.4448 114.704 60.6489 113.941C60.8638 113.168 60.9712 112.346 60.9712 111.476V111.105C60.9712 110.246 60.8638 109.435 60.6489 108.672C60.4448 107.899 60.1333 107.217 59.7144 106.626C59.3062 106.024 58.7905 105.552 58.1675 105.208C57.5552 104.864 56.8354 104.692 56.0083 104.692C55.1919 104.692 54.4722 104.864 53.8491 105.208C53.2368 105.552 52.7212 106.024 52.3022 106.626C51.894 107.217 51.5879 107.899 51.3838 108.672C51.1797 109.435 51.0776 110.246 51.0776 111.105ZM78.6958 116.616V95.25H81.6929V120H78.9536L78.6958 116.616ZM66.9653 111.476V111.138C66.9653 109.806 67.1265 108.597 67.4487 107.512C67.7817 106.417 68.249 105.477 68.8506 104.692C69.4629 103.908 70.188 103.307 71.0259 102.888C71.8745 102.458 72.8198 102.243 73.8618 102.243C74.9575 102.243 75.9136 102.437 76.73 102.823C77.5571 103.199 78.2554 103.752 78.8247 104.483C79.4048 105.203 79.8613 106.073 80.1943 107.093C80.5273 108.114 80.7583 109.269 80.8872 110.558V112.04C80.769 113.318 80.5381 114.468 80.1943 115.488C79.8613 116.509 79.4048 117.379 78.8247 118.099C78.2554 118.818 77.5571 119.372 76.73 119.758C75.9028 120.134 74.936 120.322 73.8296 120.322C72.8091 120.322 71.8745 120.102 71.0259 119.662C70.188 119.221 69.4629 118.604 68.8506 117.809C68.249 117.014 67.7817 116.079 67.4487 115.005C67.1265 113.92 66.9653 112.744 66.9653 111.476ZM69.9624 111.138V111.476C69.9624 112.346 70.0483 113.163 70.2202 113.925C70.4028 114.688 70.6821 115.359 71.0581 115.939C71.4341 116.52 71.9121 116.976 72.4922 117.309C73.0723 117.631 73.7651 117.792 74.5708 117.792C75.5591 117.792 76.3701 117.583 77.0039 117.164C77.6484 116.745 78.1641 116.192 78.5508 115.504C78.9375 114.817 79.2383 114.07 79.4531 113.265V109.381C79.3242 108.791 79.1362 108.221 78.8892 107.673C78.6528 107.115 78.3413 106.621 77.9546 106.191C77.5786 105.75 77.1113 105.401 76.5527 105.144C76.0049 104.886 75.355 104.757 74.603 104.757C73.7866 104.757 73.083 104.929 72.4922 105.272C71.9121 105.605 71.4341 106.067 71.0581 106.658C70.6821 107.238 70.4028 107.915 70.2202 108.688C70.0483 109.451 69.9624 110.268 69.9624 111.138ZM124.9 102.565V120H121.903V102.565H124.9ZM121.678 97.9409C121.678 97.4575 121.823 97.0493 122.113 96.7163C122.414 96.3833 122.854 96.2168 123.434 96.2168C124.003 96.2168 124.438 96.3833 124.739 96.7163C125.051 97.0493 125.207 97.4575 125.207 97.9409C125.207 98.4028 125.051 98.8003 124.739 99.1333C124.438 99.4556 124.003 99.6167 123.434 99.6167C122.854 99.6167 122.414 99.4556 122.113 99.1333C121.823 98.8003 121.678 98.4028 121.678 97.9409ZM132.667 106.288V120H129.686V102.565H132.506L132.667 106.288ZM131.958 110.622L130.717 110.574C130.728 109.381 130.905 108.28 131.249 107.271C131.593 106.25 132.076 105.364 132.699 104.612C133.322 103.86 134.063 103.28 134.923 102.872C135.793 102.453 136.754 102.243 137.807 102.243C138.667 102.243 139.44 102.361 140.127 102.598C140.815 102.823 141.4 103.188 141.884 103.693C142.378 104.198 142.754 104.854 143.012 105.659C143.27 106.454 143.398 107.426 143.398 108.576V120H140.401V108.543C140.401 107.63 140.267 106.9 139.999 106.352C139.73 105.793 139.338 105.391 138.822 105.144C138.307 104.886 137.673 104.757 136.921 104.757C136.18 104.757 135.503 104.913 134.891 105.224C134.289 105.536 133.768 105.965 133.328 106.513C132.898 107.061 132.56 107.689 132.312 108.398C132.076 109.097 131.958 109.838 131.958 110.622ZM148.007 102.565H151.004V122.079C151.004 123.142 150.832 124.044 150.488 124.786C150.155 125.527 149.65 126.085 148.974 126.461C148.308 126.848 147.464 127.042 146.444 127.042C146.175 127.042 145.864 127.015 145.509 126.961C145.144 126.907 144.838 126.843 144.591 126.768L144.607 124.367C144.811 124.41 145.042 124.442 145.3 124.463C145.558 124.496 145.783 124.512 145.977 124.512C146.417 124.512 146.788 124.431 147.088 124.27C147.389 124.109 147.615 123.851 147.765 123.497C147.926 123.142 148.007 122.669 148.007 122.079V102.565ZM147.701 97.9409C147.701 97.4575 147.851 97.0493 148.152 96.7163C148.453 96.3833 148.888 96.2168 149.457 96.2168C150.037 96.2168 150.478 96.3833 150.778 96.7163C151.079 97.0493 151.229 97.4575 151.229 97.9409C151.229 98.4028 151.079 98.8003 150.778 99.1333C150.478 99.4556 150.037 99.6167 149.457 99.6167C148.888 99.6167 148.453 99.4556 148.152 99.1333C147.851 98.8003 147.701 98.4028 147.701 97.9409ZM166.102 117.019V108.044C166.102 107.356 165.962 106.76 165.683 106.255C165.415 105.74 165.006 105.342 164.458 105.063C163.911 104.784 163.234 104.644 162.428 104.644C161.676 104.644 161.016 104.773 160.446 105.031C159.888 105.289 159.447 105.627 159.125 106.046C158.813 106.465 158.658 106.916 158.658 107.399H155.677C155.677 106.776 155.838 106.159 156.16 105.546C156.482 104.934 156.944 104.381 157.546 103.887C158.158 103.382 158.889 102.984 159.737 102.694C160.597 102.394 161.553 102.243 162.605 102.243C163.873 102.243 164.99 102.458 165.957 102.888C166.935 103.317 167.697 103.967 168.245 104.837C168.804 105.697 169.083 106.776 169.083 108.076V116.197C169.083 116.777 169.131 117.395 169.228 118.05C169.335 118.706 169.491 119.27 169.695 119.742V120H166.585C166.435 119.656 166.317 119.2 166.231 118.63C166.145 118.05 166.102 117.513 166.102 117.019ZM166.618 109.43L166.65 111.524H163.637C162.788 111.524 162.031 111.594 161.365 111.734C160.699 111.863 160.14 112.062 159.689 112.33C159.238 112.599 158.894 112.937 158.658 113.345C158.421 113.743 158.303 114.21 158.303 114.747C158.303 115.295 158.427 115.794 158.674 116.246C158.921 116.697 159.292 117.057 159.786 117.325C160.291 117.583 160.908 117.712 161.639 117.712C162.552 117.712 163.357 117.519 164.056 117.132C164.754 116.745 165.307 116.272 165.715 115.714C166.134 115.155 166.36 114.613 166.392 114.086L167.665 115.521C167.59 115.972 167.386 116.471 167.053 117.019C166.72 117.567 166.274 118.093 165.715 118.598C165.167 119.092 164.512 119.506 163.75 119.839C162.998 120.161 162.149 120.322 161.204 120.322C160.022 120.322 158.985 120.091 158.094 119.629C157.213 119.167 156.525 118.55 156.031 117.776C155.548 116.992 155.306 116.117 155.306 115.15C155.306 114.215 155.489 113.394 155.854 112.685C156.219 111.965 156.746 111.369 157.433 110.896C158.121 110.413 158.948 110.047 159.915 109.8C160.881 109.553 161.961 109.43 163.153 109.43H166.618Z" fill="white"/>
</svg>
